<svg xmlns="http://www.w3.org/2000/svg" width="512" height="512" viewBox="0 0 512 512">
  <rect width="512" height="512" fill="#3b82f6" rx="80"/>
  <g fill="white">
    <!-- Book icon -->
    <path d="M128 96 h256 a24 24 0 0 1 24 24 v272 a24 24 0 0 1 -24 24 h-256 a24 24 0 0 1 -24 -24 v-272 a24 24 0 0 1 24 -24z" fill="white" opacity="0.9"/>
    <rect x="152" y="144" width="208" height="24" rx="6" fill="#3b82f6"/>
    <rect x="152" y="184" width="160" height="16" rx="4" fill="#3b82f6" opacity="0.6"/>
    <rect x="152" y="216" width="180" height="16" rx="4" fill="#3b82f6" opacity="0.6"/>
    <rect x="152" y="248" width="140" height="16" rx="4" fill="#3b82f6" opacity="0.6"/>
    <rect x="152" y="280" width="170" height="16" rx="4" fill="#3b82f6" opacity="0.6"/>
    <rect x="152" y="312" width="150" height="16" rx="4" fill="#3b82f6" opacity="0.6"/>
    <rect x="152" y="344" width="190" height="16" rx="4" fill="#3b82f6" opacity="0.6"/>
  </g>
</svg>
